<?xml version='1.0' encoding='utf-8'?>
<svg xmlns="http://www.w3.org/2000/svg" version="1.1" width="600px" height="976px" viewBox="0 0 600 976"> <g id="layer1"> </g> <g id="layer2"> <g style="fill:rgb(255,213,68); fill-opacity:1.0; stroke-linejoin: miter"> <path d="M-45.85722,322.40918Q-51.506428,322.4974,-55.45788,326.35007Q-59.37558,330.34708,-59.467384,335.9401Q-59.40709,341.53558,-55.522743,345.55215Q-51.4858,349.48096,-45.947266,349.55783Q-40.297832,349.47742,-36.340504,345.6292Q-32.41719,341.6363,-32.318783,336.0432Q-32.372566,330.4478,-36.251194,326.4272Q-40.282032,322.49396,-45.820457,322.4093"/> </g> <g style="fill:rgb(181,94,40); fill-opacity:1.0; stroke-linejoin: miter"> <path d="M-45.8588,323.0826Q-51.231224,323.16705,-54.986458,326.83102Q-58.70844,330.63113,-58.793987,335.94678Q-58.734905,341.26456,-55.04102,345.08148Q-51.20141,348.81516,-45.933617,348.88443Q-40.561108,348.80264,-36.803867,345.1402Q-33.079964,341.34146,-32.992153,336.02588Q-33.049015,330.7081,-36.740936,326.88974Q-40.57846,323.15457,-45.846207,323.08264"/> </g> <g style="fill:rgb(255,213,68); fill-opacity:1.0; stroke-linejoin: miter"> <path d="M-45.863438,324.7627Q-50.533173,324.8356,-53.79952,328.02036Q-57.037956,331.32437,-57.113846,335.94763Q-57.064003,340.57297,-53.853134,343.89313Q-50.516144,347.14078,-45.937866,347.2043Q-41.267933,347.13782,-37.99674,343.95682Q-34.75365,340.6562,-34.6723,336.03284Q-34.71677,331.40762,-37.92292,328.08405Q-41.254875,324.8328,-45.83304,324.76282"/> </g> <g> <g style="fill:rgb(181,94,40); fill-opacity:1.0; stroke-linejoin: miter"> <path d="M-40.10372,329.32596C-40.160316,329.36484,-40.36876,329.55618,-40.56527,329.7565C-42.080677,331.26917,-44.16407,332.24033,-46.95554,332.7294C-47.60569,332.84427,-48.491554,332.95053,-49.13293,332.99054C-49.288013,332.99988,-49.472973,333.0152,-49.541576,333.0243L-49.66686,333.0395L-49.676197,332.8515L-49.685543,332.66354L-51.418938,332.65817L-53.1523,332.65594L-53.24415,332.96045C-53.448586,333.6441,-53.52215,334.12457,-53.517754,334.80484C-53.51645,335.43134,-53.449917,335.8549,-53.269764,336.40637L-53.149647,336.77313L-52.523125,336.77185C-51.950317,336.7705,-51.899612,336.7735,-51.899506,336.82123C-51.899406,336.87195,-51.73157,338.6526,-51.533253,340.74957C-51.47221,341.39383,-51.429806,341.71005,-51.40292,341.7278C-51.384975,341.73965,-51.074696,341.75113,-50.7167,341.7504C-50.22442,341.74933,-50.063316,341.74005,-50.054413,341.7102C-50.042587,341.6714,-50.031204,341.39972,-49.911686,338.64572C-49.871857,337.7179,-49.83176,336.9153,-49.82294,336.8616C-49.811153,336.78397,-49.796276,336.76608,-49.736607,336.76596C-49.664997,336.76584,-49.66202,336.75687,-49.66241,336.56882L-49.662823,336.37198L-49.176506,336.39175C-46.771652,336.4822,-44.23713,337.2436,-42.03563,338.53378C-41.360535,338.93222,-40.981068,339.21188,-40.541588,339.64355C-40.203777,339.97406,-40.030483,340.08392,-39.845524,340.0866L-39.750057,340.08643L-39.761356,334.67154L-39.77272,329.25668L-39.88907,329.2568C-39.95768,329.25693,-40.041145,329.28403,-40.10372,329.32596 Z"/> </g> <g style="fill:rgb(181,94,40); fill-opacity:1.0; stroke-linejoin: miter"> <path d="M-39.075188,334.67303L-39.072205,336.09018L-38.8992,336.0718C-38.40409,336.01413,-38.004833,335.75674,-37.77597,335.3475C-37.544147,334.92636,-37.5543,334.34756,-37.808777,333.92154C-38.024376,333.55508,-38.538166,333.2548,-38.94987,333.25266L-39.07816,333.25302L-39.075188,334.67303 Z"/> </g> </g> </g> </svg>